<mxfile host="app.diagrams.net" modified="2023-07-05T09:38:16.136Z" agent="Mozilla/5.0 (Macintosh; Intel Mac OS X 10_15_7) AppleWebKit/537.36 (KHTML, like Gecko) Chrome/114.0.0.0 Safari/537.36" version="21.5.0" etag="Dk3DA37L8pO3wT9LFoym" type="github">
  <diagram name="第 1 页" id="qBE5IhPVt-9iLqM7TIWP">
    <mxGraphModel>
      <root>
        <mxCell id="0" />
        <mxCell id="1" parent="0" />
      </root>
    </mxGraphModel>
  </diagram>
</mxfile>
